<?xml version="1.0" standalone="no"?>
<!DOCTYPE svg PUBLIC "-//W3C//DTD SVG 20010904//EN"
 "http://www.w3.org/TR/2001/REC-SVG-20010904/DTD/svg10.dtd">
<svg version="1.0" xmlns="http://www.w3.org/2000/svg"
 width="700.000000pt" height="700.000000pt" viewBox="0 0 700.000000 700.000000"
 preserveAspectRatio="xMidYMid meet">
<metadata>
Created by potrace 1.14, written by Peter Selinger 2001-2017
</metadata>
<g transform="translate(0.000000,700.000000) scale(0.100000,-0.100000)"
fill="#000000" stroke="none">
<path d="M2837 6564 c-1 -1 -29 -4 -62 -8 -183 -18 -323 -96 -447 -247 -50
-62 -103 -165 -117 -231 -19 -86 -21 -106 -22 -245 -1 -140 -1 -143 -22 -144
-12 0 -380 -1 -817 -3 -437 -1 -804 -5 -815 -8 -11 -3 -40 -11 -65 -18 -161
-43 -334 -191 -406 -348 -58 -128 -63 -165 -61 -542 l2 -345 45 -12 c99 -26
270 -72 365 -98 160 -43 285 -76 362 -95 40 -10 76 -21 81 -24 5 -3 19 -7 33
-9 13 -3 69 -17 124 -32 134 -36 226 -60 375 -100 172 -45 416 -110 530 -141
52 -14 102 -27 110 -29 8 -2 58 -15 110 -29 110 -30 318 -86 340 -91 8 -2 150
-40 315 -85 165 -45 311 -83 325 -86 14 -3 64 -16 111 -30 117 -34 223 -51
294 -47 68 3 156 23 510 118 138 36 282 75 320 85 68 18 203 54 335 90 36 9
214 57 395 105 182 48 371 98 420 112 50 13 140 37 200 53 61 16 142 37 180
48 39 10 185 49 325 87 140 37 311 83 380 102 69 19 136 37 150 39 14 3 54 13
90 24 36 10 89 24 118 31 l53 13 -3 366 -3 365 -29 83 c-49 140 -150 270 -270
346 -59 38 -163 81 -221 91 -22 4 -398 9 -835 11 -437 1 -802 3 -811 3 -15 1
-17 20 -18 151 -1 158 -14 239 -52 326 -93 212 -299 366 -523 390 -48 6 -1393
13 -1399 8z m1405 -457 c21 -8 52 -30 69 -48 51 -53 61 -89 64 -236 l1 -133
-40 -1 c-23 0 -415 -1 -873 -2 -732 -2 -832 0 -836 13 -10 40 1 257 16 291 21
50 83 107 133 122 32 9 212 12 736 11 615 0 697 -2 730 -17z"/>
<path d="M1 2728 c1 -1429 -3 -1345 72 -1493 93 -182 283 -323 473 -351 68
-10 5815 -11 5889 -2 215 29 405 169 500 370 66 138 63 74 64 1476 1 699 -1
1272 -3 1272 -2 0 -156 -41 -343 -90 -186 -50 -346 -93 -355 -95 -9 -2 -138
-36 -285 -75 -251 -67 -398 -106 -433 -115 -8 -2 -168 -45 -355 -95 -187 -50
-457 -122 -600 -160 -143 -38 -438 -117 -655 -175 -217 -59 -418 -109 -445
-112 -42 -4 -105 9 -395 87 -190 50 -385 102 -435 115 -49 13 -198 53 -330 88
-214 58 -1794 479 -1920 512 -27 8 -137 36 -242 64 -106 28 -195 51 -198 51
-3 0 -5 -573 -4 -1272z"/>
</g>
</svg>
